<svg id="svg" version="1.1" xmlns="http://www.w3.org/2000/svg" xmlns:xlink="http://www.w3.org/1999/xlink" width="400" height="122.84003421727972" viewBox="0, 0, 400,122.84003421727972"><g id="svgg"><path id="path0" d="M39.000 44.679 C 30.291 45.338,23.383 49.665,20.261 56.417 C 19.590 57.866,19.542 57.991,19.250 59.000 C 17.878 63.751,18.377 69.727,20.488 73.833 C 23.196 79.097,27.544 81.731,38.417 84.694 C 42.372 85.772,45.824 87.526,46.741 88.926 C 48.159 91.090,48.290 93.965,47.083 96.432 C 45.294 100.088,38.890 101.179,33.000 98.831 C 31.596 98.272,31.487 98.219,30.417 97.582 C 29.867 97.255,29.285 96.944,29.125 96.891 C 28.965 96.838,28.833 96.728,28.833 96.647 C 28.833 96.566,28.761 96.500,28.672 96.500 C 28.583 96.500,28.002 96.176,27.380 95.779 C 24.346 93.844,22.081 94.155,20.279 96.756 C 19.101 98.457,16.667 102.337,16.667 102.514 C 16.667 102.598,16.592 102.667,16.500 102.667 C 16.408 102.667,16.333 102.755,16.333 102.862 C 16.333 102.969,16.217 103.186,16.074 103.344 C 15.835 103.608,15.877 103.689,16.597 104.357 C 17.027 104.756,17.469 105.170,17.580 105.277 C 19.810 107.431,27.156 110.753,31.883 111.746 C 35.087 112.419,40.798 112.634,43.500 112.185 C 53.781 110.475,60.530 104.141,62.253 94.583 C 62.748 91.840,62.561 87.319,61.844 84.695 C 60.773 80.778,57.051 76.657,52.833 74.720 C 52.604 74.615,51.927 74.299,51.328 74.019 C 49.661 73.236,45.602 71.805,42.333 70.848 C 41.138 70.497,39.684 69.960,38.250 69.340 C 37.883 69.181,37.340 68.946,37.042 68.818 C 36.744 68.690,36.500 68.529,36.500 68.459 C 36.500 68.390,36.390 68.333,36.256 68.333 C 35.875 68.333,33.848 66.348,33.460 65.595 C 33.181 65.051,33.112 64.619,33.116 63.417 C 33.132 58.903,36.908 56.451,43.000 57.000 C 45.563 57.231,46.924 57.753,52.008 60.455 C 54.585 61.825,56.842 61.077,58.166 58.417 C 58.394 57.958,58.849 57.096,59.179 56.500 C 61.983 51.426,61.917 51.760,60.364 50.543 C 56.876 47.806,52.141 45.847,47.000 45.013 C 46.014 44.853,41.207 44.468,40.885 44.523 C 40.811 44.536,39.962 44.606,39.000 44.679 M64.040 51.542 L 64.083 57.750 73.375 57.793 L 82.667 57.836 82.680 82.876 C 82.694 109.361,82.695 109.422,83.008 110.028 C 83.855 111.669,83.841 111.667,91.575 111.667 L 98.333 111.667 98.333 84.751 L 98.333 57.836 107.625 57.793 L 116.917 57.750 116.966 52.917 C 117.017 47.878,116.940 47.130,116.296 46.427 C 116.133 46.249,116.000 46.051,116.000 45.987 C 116.000 45.340,115.744 45.333,89.328 45.333 L 63.996 45.333 64.040 51.542 M122.207 77.456 C 122.255 113.456,122.136 110.210,123.450 111.208 L 124.054 111.667 144.610 111.667 L 165.167 111.667 165.167 105.667 L 165.167 99.667 151.583 99.667 L 138.000 99.667 138.000 91.917 L 138.000 84.167 148.333 84.167 L 158.667 84.167 158.667 78.417 L 158.667 72.667 148.333 72.667 L 138.000 72.667 138.000 65.000 L 138.000 57.333 151.583 57.333 L 165.167 57.333 165.166 52.458 C 165.166 46.981,165.150 46.893,163.943 45.929 L 163.302 45.417 142.733 45.372 L 122.164 45.328 122.207 77.456 M172.000 77.296 C 172.000 110.885,171.979 109.920,172.735 110.795 C 173.573 111.765,173.285 111.735,181.375 111.697 L 187.667 111.667 187.667 100.682 L 187.667 89.698 193.708 89.616 C 199.556 89.537,200.656 89.455,204.000 88.851 C 209.950 87.776,215.326 84.661,218.250 80.593 C 218.433 80.338,218.679 80.029,218.795 79.907 C 219.165 79.517,220.651 76.452,220.931 75.500 C 221.079 74.996,221.263 74.396,221.338 74.167 C 221.496 73.687,221.747 72.516,221.994 71.097 C 222.216 69.828,222.218 64.449,221.997 63.300 C 221.574 61.101,221.437 60.520,221.121 59.583 C 219.850 55.823,217.741 52.873,214.673 50.565 C 213.516 49.695,210.896 48.254,209.083 47.491 C 208.179 47.110,205.820 46.414,204.500 46.139 C 201.239 45.459,201.195 45.457,186.375 45.381 L 172.000 45.308 172.000 77.296 M226.875 67.208 C 226.918 84.577,226.975 89.289,227.150 90.083 C 228.116 94.464,228.386 95.289,229.959 98.658 C 232.448 103.992,238.142 108.724,244.667 110.881 C 248.193 112.046,250.596 112.390,255.250 112.393 C 260.514 112.396,263.577 111.881,267.497 110.335 C 274.670 107.505,279.894 102.010,282.314 94.750 C 283.756 90.422,284.000 87.853,284.000 76.997 L 284.000 69.346 282.981 68.654 C 282.420 68.273,281.831 67.839,281.672 67.689 C 281.228 67.270,280.672 66.833,280.583 66.833 C 280.539 66.833,280.333 66.691,280.126 66.516 C 279.919 66.342,278.925 65.502,277.917 64.651 C 275.932 62.976,271.588 58.692,270.247 57.090 C 269.791 56.544,269.177 55.839,268.884 55.523 L 268.351 54.950 268.282 71.433 C 268.208 89.158,268.244 88.423,267.333 91.009 C 266.854 92.371,265.975 94.127,265.502 94.667 C 265.302 94.896,264.941 95.330,264.700 95.632 C 262.881 97.912,259.284 99.333,255.333 99.333 C 251.420 99.333,248.839 98.348,246.161 95.833 C 245.167 94.900,243.864 92.660,243.314 90.940 C 242.397 88.069,242.443 89.184,242.343 67.404 L 242.250 47.225 241.807 46.555 C 240.993 45.326,241.042 45.333,233.510 45.333 L 226.819 45.333 226.875 67.208 M199.417 57.471 C 205.481 59.114,208.079 64.680,206.019 71.617 C 205.539 73.235,203.305 76.167,202.553 76.167 C 202.492 76.167,202.325 76.271,202.180 76.399 C 202.035 76.527,201.542 76.761,201.083 76.918 C 199.005 77.631,198.513 77.684,193.042 77.782 L 187.667 77.877 187.667 67.428 L 187.667 56.979 192.875 57.044 C 197.572 57.103,198.214 57.145,199.417 57.471 M293.333 92.190 L 293.333 109.380 293.703 110.121 C 293.946 110.606,294.311 111.002,294.760 111.265 L 295.446 111.667 302.223 111.667 L 309.000 111.667 309.000 100.667 L 309.000 89.667 314.235 89.667 C 321.854 89.667,327.921 88.770,330.938 87.199 C 331.110 87.109,331.625 86.861,332.083 86.646 C 332.986 86.223,334.865 85.171,335.000 85.013 C 335.046 84.960,335.415 84.691,335.821 84.416 C 336.961 83.643,338.794 81.797,338.515 81.702 C 338.386 81.657,337.673 81.706,336.932 81.809 C 336.190 81.913,334.908 82.090,334.083 82.203 C 332.005 82.488,320.974 82.488,318.750 82.203 C 314.007 81.595,311.942 81.252,310.000 80.749 C 309.496 80.619,308.633 80.402,308.083 80.268 C 306.434 79.866,304.644 79.369,303.583 79.017 C 301.163 78.216,298.246 77.122,297.083 76.581 C 294.995 75.608,293.608 75.000,293.477 75.000 C 293.398 75.000,293.333 82.720,293.333 92.190 " stroke="none" fill="#2cd4dc" fill-rule="evenodd"></path><path id="path1" d="M363.917 8.524 C 354.540 9.907,347.374 15.991,345.000 24.583 C 343.148 31.288,342.907 37.973,344.184 47.167 C 344.280 47.854,344.423 48.754,344.502 49.167 C 344.582 49.579,344.772 50.592,344.925 51.417 C 345.267 53.255,345.248 53.231,346.627 53.543 C 349.455 54.184,350.805 54.400,356.223 55.084 C 362.166 55.834,370.238 55.182,375.167 53.553 C 377.395 52.817,380.274 51.390,381.241 50.542 C 381.477 50.335,381.708 50.167,381.756 50.167 C 382.091 50.167,385.500 46.693,385.500 46.352 C 385.500 46.265,385.563 46.169,385.641 46.139 C 385.843 46.059,387.000 44.411,387.000 44.202 C 387.000 44.106,387.062 44.003,387.137 43.972 C 387.213 43.942,387.611 43.242,388.021 42.417 C 390.858 36.721,391.262 30.045,389.141 23.917 C 388.601 22.357,387.223 19.592,386.708 19.035 C 386.594 18.911,386.500 18.754,386.500 18.686 C 386.500 18.618,386.367 18.417,386.204 18.240 C 386.041 18.062,385.727 17.654,385.506 17.333 C 384.990 16.585,382.451 14.043,381.583 13.406 C 381.217 13.137,380.784 12.797,380.622 12.652 C 380.460 12.506,380.123 12.281,379.872 12.152 C 379.622 12.023,379.379 11.870,379.333 11.811 C 378.951 11.326,374.765 9.544,372.954 9.095 C 370.096 8.387,366.418 8.155,363.917 8.524 M369.411 23.846 C 372.692 24.453,374.762 26.777,374.739 29.830 C 374.710 33.795,372.955 35.289,368.125 35.458 C 365.680 35.543,365.670 35.548,365.993 36.398 C 366.458 37.621,369.647 37.633,372.535 36.422 C 373.622 35.967,374.365 39.990,373.314 40.642 C 369.013 43.309,362.422 41.804,360.339 37.678 C 356.740 30.549,362.031 22.482,369.411 23.846 M366.629 29.260 C 366.027 29.586,365.833 29.988,365.833 30.906 L 365.833 31.667 367.058 31.667 C 368.515 31.667,368.833 31.435,368.833 30.374 C 368.833 29.218,367.732 28.661,366.629 29.260 M272.105 46.450 C 272.545 47.073,272.949 47.621,273.002 47.667 C 273.056 47.712,273.276 48.012,273.492 48.333 C 273.708 48.654,273.970 48.992,274.075 49.083 C 274.179 49.175,274.548 49.625,274.894 50.083 C 276.382 52.054,282.355 58.167,282.792 58.167 C 282.866 58.167,283.035 58.317,283.167 58.500 C 283.817 59.402,283.851 59.098,283.800 52.871 C 283.750 46.951,283.747 46.906,283.375 46.506 C 283.169 46.285,283.000 46.043,283.000 45.969 C 283.000 45.894,282.894 45.833,282.764 45.833 C 282.634 45.833,282.497 45.740,282.458 45.625 C 282.405 45.465,281.096 45.405,276.847 45.366 L 271.304 45.316 272.105 46.450 M293.411 55.514 C 293.497 62.885,293.584 65.775,293.724 65.914 C 293.901 66.091,299.490 68.879,300.250 69.169 C 300.433 69.239,301.033 69.484,301.583 69.714 C 302.133 69.944,303.071 70.298,303.667 70.500 C 304.262 70.702,304.900 70.926,305.083 70.997 C 305.267 71.069,305.979 71.295,306.667 71.500 C 307.354 71.706,308.123 71.936,308.375 72.012 L 308.833 72.149 308.833 64.478 L 308.833 56.806 314.375 56.874 C 320.528 56.950,320.884 57.001,323.161 58.113 C 325.205 59.111,326.676 60.728,327.460 62.840 C 328.091 64.540,328.324 67.152,328.003 68.927 C 327.888 69.563,327.772 70.233,327.746 70.417 C 327.720 70.600,327.625 70.938,327.536 71.167 C 327.446 71.396,327.367 71.641,327.359 71.711 C 327.326 72.004,326.258 74.000,326.135 74.000 C 326.061 74.000,326.000 74.112,326.000 74.250 C 326.000 74.741,330.486 74.546,335.750 73.825 C 337.781 73.547,340.530 73.047,341.262 72.823 C 341.543 72.737,341.923 72.667,342.105 72.667 C 342.733 72.667,343.009 72.282,343.180 71.164 C 343.541 68.809,343.636 66.941,343.474 65.359 C 343.383 64.474,343.287 63.487,343.261 63.167 C 343.234 62.846,343.121 62.246,343.010 61.833 C 342.833 61.175,342.483 59.903,342.414 59.667 C 342.400 59.621,342.330 59.358,342.258 59.083 C 342.186 58.808,342.022 58.415,341.893 58.208 C 341.764 58.002,341.698 57.833,341.745 57.833 C 341.859 57.833,340.379 55.034,340.159 54.833 C 340.108 54.788,339.889 54.487,339.672 54.167 C 339.167 53.422,336.953 51.203,336.083 50.570 C 335.717 50.303,335.379 50.041,335.333 49.988 C 335.211 49.845,332.703 48.460,331.833 48.056 C 330.503 47.437,326.906 46.312,325.333 46.023 C 324.829 45.930,323.929 45.762,323.333 45.650 C 322.550 45.502,318.243 45.427,307.770 45.377 L 293.291 45.308 293.411 55.514 " stroke="none" fill="#fc6e04" fill-rule="evenodd"></path><path id="path2" d="M365.576 23.899 C 358.155 25.702,356.959 37.778,363.877 41.062 C 366.460 42.289,369.771 42.221,372.702 40.880 C 374.118 40.233,374.288 39.395,373.412 37.396 C 372.922 36.281,372.920 36.280,371.573 36.790 C 368.909 37.797,365.833 37.324,365.833 35.907 L 365.833 35.500 367.675 35.500 C 372.008 35.500,374.161 34.163,374.668 31.158 C 375.498 26.236,370.939 22.596,365.576 23.899 M368.394 29.345 C 369.612 30.303,368.826 31.667,367.058 31.667 L 365.833 31.667 365.833 30.906 C 365.833 29.311,367.252 28.447,368.394 29.345 M283.796 53.500 C 283.771 56.525,283.806 59.000,283.875 59.000 C 283.944 59.000,284.000 56.525,284.000 53.500 C 284.000 50.475,283.964 48.000,283.921 48.000 C 283.878 48.000,283.821 50.475,283.796 53.500 M308.873 64.528 L 308.913 72.250 308.958 64.616 L 309.003 56.982 314.127 57.035 C 319.894 57.094,321.114 57.281,323.331 58.450 C 325.502 59.593,327.348 62.069,327.720 64.333 C 327.787 64.744,327.788 64.743,327.811 64.298 C 327.903 62.455,325.710 59.447,323.363 58.196 C 321.270 57.080,320.370 56.949,314.292 56.874 L 308.833 56.806 308.873 64.528 M343.542 65.583 C 343.544 65.950,343.578 66.080,343.618 65.873 C 343.658 65.666,343.656 65.366,343.615 65.206 C 343.573 65.047,343.540 65.217,343.542 65.583 M328.042 66.250 C 328.044 66.617,328.078 66.747,328.118 66.540 C 328.158 66.332,328.156 66.032,328.115 65.873 C 328.073 65.714,328.040 65.883,328.042 66.250 M328.039 67.833 C 328.039 68.154,328.073 68.285,328.115 68.125 C 328.157 67.965,328.157 67.702,328.115 67.542 C 328.073 67.381,328.039 67.512,328.039 67.833 M343.550 68.500 C 343.550 69.004,343.581 69.210,343.619 68.958 C 343.658 68.706,343.658 68.294,343.619 68.042 C 343.581 67.790,343.550 67.996,343.550 68.500 M343.083 71.833 C 343.021 72.030,343.007 72.229,343.053 72.275 C 343.099 72.321,343.187 72.197,343.250 72.000 C 343.313 71.803,343.326 71.604,343.280 71.558 C 343.235 71.512,343.146 71.636,343.083 71.833 " stroke="none" fill="#fcfaf8" fill-rule="evenodd"></path><path id="path3" d="M293.404 62.167 C 293.404 64.137,293.428 64.944,293.458 63.958 C 293.487 62.973,293.487 61.360,293.458 60.375 C 293.428 59.390,293.404 60.196,293.404 62.167 " stroke="none" fill="#60d8b4" fill-rule="evenodd"></path><path id="path4" d="" stroke="none" fill="#60ecb4" fill-rule="evenodd"></path></g></svg>